<svg version="1.2" xmlns="http://www.w3.org/2000/svg" viewBox="0 0 500 500" width="500" height="500">
	<style>
		.s0 { fill: #b2b8c4 } 
		.s1 { fill: #95a1b3 } 
		.s2 { fill: #ffffff } 
		.s3 { fill: #70838e } 
		.s4 { fill: #b5f6f8 } 
		.s5 { fill: #e6fcfc } 
		.s6 { fill: #5f5c5d } 
		.s7 { fill: #63d3d6 } 
		.s8 { fill: #767576 } 
		.s9 { fill: #e2e2e2 } 
	</style>
	<g id="OBJECTS">
		<g>
			<g>
				<path class="s0" d="m486.68 119.66c-17.93-17.94-75.07 14.69-100.24 30.51-12.45-2.08-28.52-2.93-46.92-2.84-18.4-0.08-34.46 0.77-46.92 2.84-25.17-15.83-82.31-48.43-100.23-30.51-17.8 17.81 2.52 66.68 12.96 88.45-12.34 20.85-16.85 43.69-16.85 63.35q-0.01 25.5 6.1 50.97c7.95 33.14 34.15 58.59 67.56 65.36q16.47 3.33 32.95 5.24c-22.23 7.91-36.75 20.95-36.75 35.69 0 24.13 38.87 43.69 86.81 43.69 47.94 0 70.34-25.46 70.34-49.59 0-14.03-7.58-24.5-23.34-30.83q12.38-1.7 24.76-4.2c33.4-6.76 59.61-32.22 67.56-65.36q6.1-25.47 6.1-50.97c0-19.66-4.51-42.48-16.84-63.33 10.41-21.76 30.76-70.66 12.95-88.47z"/>
				<g>
					<path class="s1" d="m358.79 159.46c0 28.15-8.19 50.95-18.25 50.95-10.09 0-18.28-22.8-18.28-50.95q0-5.79 0.45-11.21 17.81-0.81 35.63 0.03 0.45 5.41 0.45 11.18z"/>
					<g>
						<path class="s1" d="m319.57 150.22c0 28.12-8.17 50.94-18.26 50.94-9.69 0-17.67-21.22-18.23-47.95 6.27-1.63 12.76-2.8 19.4-3.47q8.53-0.85 17.07-1.31 0.02 0.89 0.02 1.79z"/>
						<path class="s1" d="m397.97 152.98c-0.52 26.83-8.49 48.18-18.23 48.18-10.09 0-18.26-22.82-18.26-50.94q0-0.9 0.02-1.79c6.53 0.34 13.08 0.88 19.61 1.57q8.64 0.92 16.86 2.98z"/>
					</g>
				</g>
				<path class="s2" d="m466.67 162.96c0 0 2.91 6.59 3.38 13.98 0.46 6.83-3.66 12.05-9.05 14.22-11.31-12.86-25.28-23.38-41.05-30.68 0.15-3.71 1.7-7.35 4.72-10.09 12.11-11.01 28.85-22.88 40.71-18.06 20.64 8.43 1.29 30.63 1.29 30.63z"/>
				<path class="s2" d="m214.37 162.96c0 0-2.91 6.59-3.39 13.98-0.45 6.83 3.67 12.05 9.05 14.22 11.32-12.86 25.28-23.38 41.06-30.68-0.16-3.71-1.71-7.35-4.72-10.09-12.12-11.01-28.86-22.88-40.71-18.06-20.65 8.43-1.29 30.63-1.29 30.63z"/>
				<path class="s3" d="m491.48 115.84c-9.58-9.57-26.98-9.11-53.21 1.41-18.86 7.56-38.38 18.8-51.98 27.29-11.95-1.81-27.27-2.68-45.74-2.6-18.52-0.08-33.85 0.79-45.8 2.6-13.63-8.49-33.16-19.74-51.99-27.29-26.23-10.52-43.63-10.98-53.21-1.4-19.03 19.03-2.1 64.7 10.69 92-13.64 24.32-16.15 48.9-16.15 63.61 0 17.37 2.1 34.94 6.25 52.22 8.4 35.03 36.55 62.26 71.73 69.39q0.54 0.11 1.07 0.11c2.51 0 4.76-1.77 5.27-4.32 0.59-2.92-1.29-5.76-4.21-6.35-31.08-6.3-55.96-30.37-63.39-61.34-3.95-16.46-5.95-33.19-5.95-49.71 0-18.27 4.17-53.13 32.14-81.38 2.09-2.11 2.07-5.52-0.04-7.61-2.12-2.1-5.53-2.08-7.62 0.03-4.65 4.7-8.69 9.56-12.21 14.49-16.16-36.39-19.94-63.55-9.96-73.53 9.59-9.59 40.67-0.22 82.36 24.44-7.24 2.16-14.19 4.7-20.67 7.61-2.71 1.22-3.92 4.41-2.7 7.13 1.22 2.71 4.41 3.92 7.12 2.7 6.63-2.98 13.78-5.57 21.26-7.7 11.91-3.38 30.74-5.05 56.01-4.93 25.21-0.13 44.05 1.55 55.95 4.93 7.49 2.13 14.64 4.72 21.26 7.7q1.09 0.48 2.21 0.47c2.05 0 4.01-1.18 4.91-3.17 1.22-2.72 0.01-5.91-2.7-7.13-6.48-2.91-13.44-5.46-20.68-7.61 41.67-24.68 72.75-34.04 82.36-24.44 9.96 9.96 6.18 37.13-9.95 73.53-3.52-4.93-7.56-9.79-12.21-14.49-2.1-2.11-5.51-2.13-7.62-0.03-2.11 2.09-2.13 5.5-0.04 7.61 27.96 28.25 32.14 63.11 32.14 81.38 0 16.53-2 33.25-5.95 49.71-7.43 30.96-32.31 55.04-63.4 61.34-2.91 0.59-4.79 3.43-4.21 6.35 0.52 2.55 2.77 4.32 5.28 4.32q0.53 0 1.07-0.11c35.17-7.13 63.33-34.36 71.73-69.39 4.15-17.28 6.25-34.85 6.25-52.22 0-14.71-2.51-39.29-16.15-63.61 12.78-27.3 29.69-73 10.68-92.01z"/>
				<path class="s3" d="m360.48 324.53l-13.57-13.58v-4.56h2.13c2.98 0 5.39-2.41 5.39-5.39 0-2.97-2.41-5.38-5.39-5.38h-15.04c-2.97 0-5.38 2.41-5.38 5.38 0 2.98 2.41 5.39 5.38 5.39h2.14v4.56l-13.58 13.58c-2.1 2.1-2.1 5.51 0 7.62 2.1 2.1 5.52 2.1 7.62 0l11.34-11.35 11.35 11.35c1.05 1.05 2.43 1.57 3.81 1.57 1.37 0 2.75-0.52 3.8-1.57 2.11-2.11 2.11-5.52 0-7.62z"/>
				<g>
					<g>
						<path class="s1" d="m447.41 314.82h-26.77c-2.98 0-5.39-2.41-5.39-5.38 0-2.98 2.41-5.39 5.39-5.39h26.77c2.98 0 5.39 2.41 5.39 5.39 0 2.97-2.41 5.38-5.39 5.38z"/>
						<path class="s1" d="m442.55 339.98q-0.94 0-1.87-0.34l-21.91-8.11c-2.79-1.04-4.21-4.14-3.18-6.93 1.03-2.79 4.13-4.21 6.92-3.18l21.91 8.11c2.78 1.04 4.21 4.14 3.18 6.93-0.81 2.17-2.87 3.52-5.05 3.52z"/>
					</g>
				</g>
				<g>
					<path class="s2" d="m393.77 246.42h-14.04c-2.98 0-5.39-2.41-5.39-5.38 0-2.98 2.41-5.39 5.39-5.39h14.04c2.98 0 5.39 2.41 5.39 5.39 0 2.97-2.41 5.38-5.39 5.38z"/>
					<path class="s2" d="m301.32 246.42h-14.04c-2.98 0-5.39-2.41-5.39-5.38 0-2.98 2.41-5.39 5.39-5.39h14.04c2.98 0 5.39 2.41 5.39 5.39 0 2.97-2.41 5.38-5.39 5.38z"/>
				</g>
				<g>
					<path class="s4" d="m323.35 286.64c-0.23 13.92-6.8 26.27-16.91 34.3-7.85 6.26-17.8 9.91-28.61 9.73-4.08-0.07-8.04-0.68-11.77-1.78-18.92-5.49-32.6-23.09-32.26-43.74 0.28-17 10-31.62 24.09-38.97h0.03c6.39-3.36 13.68-5.19 21.4-5.06 5.68 0.09 11.08 1.23 16.05 3.27 16.66 6.72 28.3 23.21 27.98 42.25z"/>
					<path class="s4" d="m450.2 288.74c-0.22 13.03-5.98 24.67-15 32.7-8.08 7.23-18.81 11.53-30.52 11.33-3.7-0.06-7.29-0.58-10.74-1.47-19.46-5.15-33.64-23.02-33.29-44.05 0.3-17.78 10.95-33 26.08-39.94 5.91-2.73 12.51-4.2 19.44-4.09 6.01 0.1 11.73 1.38 16.92 3.64 16.2 6.94 27.42 23.18 27.11 41.88z"/>
					<path class="s5" d="m435.2 321.44c-8.08 7.23-18.81 11.53-30.52 11.34-3.7-0.07-7.29-0.59-10.74-1.48 13.62-20.04 9.2-32.39-7.53-37.96-16.36-5.44-12.51-30.16 0.32-46.03 5.91-2.73 12.51-4.2 19.44-4.08 6.01 0.1 11.73 1.37 16.92 3.63-13.51 15.81-17.91 41.51-1.18 47.07 13.59 4.53 19.05 13.55 13.29 27.51z"/>
					<path class="s5" d="m306.44 320.94c-7.85 6.26-17.8 9.91-28.61 9.73-4.08-0.07-8.04-0.68-11.77-1.78 13.43-19.86 8.96-32.13-7.69-37.67-16.03-5.34-12.65-29.14-0.47-45.04h0.02c6.39-3.36 13.68-5.19 21.4-5.06 5.68 0.09 11.08 1.23 16.05 3.27-13.78 15.78-18.35 41.8-1.49 47.42 14.11 4.71 19.45 14.22 12.56 29.13z"/>
					<path class="s6" d="m498.61 255.52l-2.92-3.02c-3.24-3.35-7.76-5.13-12.41-4.88-4.65 0.25-8.96 2.5-11.82 6.17l-17.85 22.91c-5.05-21.55-24.25-37.8-47.36-38.18-24.72-0.42-45.57 17.46-49.61 41.12-11.41-4.96-22.27-2.72-28.99-0.22-3.14-23.9-23.43-42.6-48.25-43.01-23.11-0.39-42.84 15.23-48.61 36.59l-17.08-23.49c-2.74-3.76-6.96-6.15-11.6-6.55-4.64-0.41-9.22 1.22-12.56 4.45l-3.03 2.93c-1.87 1.81-1.92 4.79-0.11 6.66 1.81 1.87 4.8 1.92 6.67 0.11l3.02-2.92c1.4-1.36 3.25-2.01 5.19-1.84 1.95 0.17 3.65 1.13 4.8 2.71l23.01 31.64c0.36 22.34 15.63 41.24 36.39 46.94 3.92 1.07 8.03 1.68 12.27 1.75 26.35 0.44 48.29-19.91 50.18-45.87 4.64-2.26 16.35-6.52 28.03 0.35 0.82 21.88 15.93 40.27 36.37 45.88 3.91 1.07 8.03 1.68 12.27 1.75 13.22 0.22 25.73-4.72 35.23-13.92 9.11-8.81 14.4-20.52 15.01-33.12l24.05-30.87c1.2-1.54 2.94-2.44 4.89-2.54 1.94-0.11 3.77 0.61 5.12 2.01l2.93 3.02c1.8 1.87 4.79 1.92 6.66 0.11 1.87-1.82 1.92-4.8 0.11-6.67zm-220.7 70.43c-22.08-0.37-39.76-18.63-39.39-40.72 0.36-22.09 18.63-39.77 40.72-39.4q5.16 0.09 10.01 1.42c6.83 1.88 13.07 5.56 18.13 10.78 7.44 7.7 11.44 17.83 11.26 28.53-0.36 22.09-18.64 39.76-40.73 39.39zm155.37-9.15c-7.69 7.44-17.82 11.44-28.52 11.26-10.7-0.18-20.69-4.51-28.14-12.2-7.44-7.7-11.44-17.83-11.26-28.53 0.37-22.09 18.64-39.76 40.73-39.4 3.43 0.06 6.76 0.55 9.93 1.42 17.22 4.72 29.77 20.65 29.47 39.31-0.18 10.71-4.52 20.7-12.21 28.14z"/>
				</g>
				<path class="s7" d="m421.48 290.26h-33.89c-2.97 0-5.38-2.41-5.38-5.39 0-2.97 2.41-5.38 5.38-5.38h33.89c2.98 0 5.39 2.41 5.39 5.38 0 2.98-2.41 5.39-5.39 5.39z"/>
				<path class="s7" d="m293.46 290.26h-33.89c-2.98 0-5.39-2.41-5.39-5.39 0-2.97 2.41-5.38 5.39-5.38h33.89c2.97 0 5.38 2.41 5.38 5.38 0 2.98-2.41 5.39-5.38 5.39z"/>
			</g>
			<path class="s4" d="m177.48 5.19h-124.51c-26.47 0-47.94 21.46-47.94 47.94v46.58c0 26.47 21.46 47.93 47.94 47.93h71.68c0 20.26 7.91 36.67 17.67 36.67 9.77 0 17.68-16.41 17.68-36.67h17.48c26.47 0 47.93-21.46 47.93-47.93v-46.58c0-26.48-21.46-47.94-47.93-47.94z"/>
			<g>
				<path class="s0" d="m461.86 421.09c-3.39-17.29-12.56-31.16-23.38-37.45-2.07-9.04-9.79-16.12-19.53-16.94l-9.17-0.78c-16.56-1.39-32.37 0.3-33.71 10.29-0.79 5.88 3.88 9.53 9.84 11.77l-1.57 18.61c-0.88 10.35 5.58 19.61 15.05 22.69q0.27 1.96 0.65 3.95c5.08 25.83 23.03 44.06 40.1 40.7 17.07-3.35 26.8-27.01 21.72-52.84z"/>
				<path class="s3" d="m467.15 420.05c-3.43-17.44-12.34-32.14-24.03-39.88-1.08-3.34-2.81-6.48-5.15-9.24-4.71-5.57-11.3-8.98-18.56-9.59l-9.03-0.77q-0.08-0.01-0.15-0.02c-16.91-1.43-37.49 0-39.5 14.94-0.55 4.13 0.6 7.98 3.35 11.16 1.62 1.87 3.74 3.4 6.14 4.65l-1.25 14.84c-0.99 11.67 5.56 22.27 15.58 27q0.1 0.58 0.21 1.13c2.66 13.52 8.69 25.61 17 34.04 7.36 7.47 15.8 11.42 24.22 11.42q2.61 0 5.2-0.51c10.09-1.98 18.3-9.52 23.11-21.23 4.5-10.95 5.51-24.42 2.86-37.94zm-77.44-13l1.01-12.05c7.88 1.82 15.42 1.99 16.82 2.01q0.03 0 0.07 0c2.94 0 5.34-2.37 5.38-5.32 0.03-2.98-2.35-5.41-5.32-5.45-8.27-0.11-21.64-2.23-25.44-6.64-0.73-0.84-0.96-1.61-0.82-2.68 0.65-4.8 11.6-7.01 27.92-5.63q0 0 0 0v0.01l9.17 0.77c9.09 0.77 15.86 8.78 15.09 17.86l-1.75 20.68c-0.77 9.08-8.79 15.86-17.87 15.08l-9.17-0.77c-9.1-0.77-15.86-8.79-15.09-17.87zm64.61 46.85c-3.39 8.25-8.79 13.49-15.22 14.75-6.42 1.26-13.41-1.54-19.67-7.9-6.1-6.19-10.74-14.93-13.27-24.9l6.9 0.58q1.16 0.1 2.32 0.1c14.02 0 25.99-10.79 27.19-25.01l1.39-16.36c5.95 6.74 10.52 16.3 12.62 26.97 2.25 11.47 1.45 22.75-2.26 31.77z"/>
			</g>
			<g>
				<path class="s0" d="m326.64 400.42l-2.26-8.92c-2.98-11.73-14.9-18.84-26.63-15.87l-20.11 5.1c-3.72 0.95-6.98 2.79-9.59 5.24-10.8 3.11-22.13 11.4-30.68 23.59-15.11 21.55-15.81 47.12-1.57 57.11 14.25 9.99 38.05 0.61 53.16-20.95 3.46-4.92 6.15-10.06 8.09-15.17l11.73-2.98c3.19 5.52 7.55 9.53 13.22 7.79 9.64-2.95 8.72-18.83 4.64-34.94z"/>
				<path class="s3" d="m331.87 399.11q-0.03-0.07-0.05-0.14l-2.22-8.79c-3.71-14.6-18.59-23.46-33.17-19.76l-20.12 5.1c-4.18 1.06-7.89 3.04-10.97 5.67-11.99 3.8-23.73 12.94-32.38 25.27-17.07 24.36-17.19 52.75-0.25 64.63 4.73 3.32 10.33 4.99 16.42 4.99 4.73 0 9.75-1.01 14.9-3.04 11.01-4.34 21.43-12.94 29.34-24.23 3.07-4.38 5.63-8.98 7.64-13.71l5.42-1.37c1.63 2.17 3.49 4.02 5.6 5.31 2.31 1.41 4.79 2.12 7.33 2.12q2.1 0 4.22-0.65c14.4-4.42 12.46-24.96 8.29-41.4zm-47.32 43.52c-6.72 9.57-15.4 16.81-24.47 20.39-8.3 3.27-15.83 3-21.19-0.76-11.59-8.12-10.26-30.85 2.9-49.61 4.11-5.87 9-10.87 14.22-14.67-0.52 3.48-0.38 7.11 0.54 10.73l2.26 8.92c3.13 12.36 14.28 20.6 26.48 20.6q1.06 0 2.14-0.09-1.34 2.28-2.88 4.49zm35.87-12.42c-1.03 0.31-1.83 0.21-2.77-0.37-4.97-3.03-9.25-15.87-10.7-24.01-0.52-2.93-3.32-4.89-6.25-4.37-2.92 0.52-4.88 3.32-4.36 6.25 0.24 1.38 1.64 8.79 4.73 16.26l-11.72 2.97c-8.84 2.24-17.85-3.12-20.1-11.96l-2.26-8.93c-2.24-8.84 3.13-17.85 11.97-20.09l20.11-5.1c8.84-2.24 17.84 3.13 20.09 11.97l2.26 8.92c4.03 15.87 3.63 27.04-1 28.46z"/>
			</g>
			<path class="s8" d="m418.77 461.19l-107.6-9.67h-160.04v26h160.04 107.6z"/>
			<path class="s6" d="m418.77 482.9h-200.41c-2.98 0-5.39-2.41-5.39-5.38v-26c0-2.98 2.41-5.39 5.39-5.39h92.81q0.24 0 0.49 0.03l107.59 9.67c2.78 0.25 4.91 2.57 4.91 5.36v16.33c-0.01 2.97-2.42 5.38-5.39 5.38zm-195.03-10.77h189.64v-6.02l-102.45-9.21h-87.19c0 0 0 15.23 0 15.23z"/>
			<g>
				<path class="s2" d="m262.13 201.48h-237.79c-9.9 0-17.96 8.03-17.96 17.96v185.42c0 4.96 2.02 9.46 5.27 12.68 3.25 3.28 7.75 5.27 12.69 5.27h64.52v28.71h-28.17c-7.18 0-13 5.82-13 13 0 7.18 5.82 13 13 13h28.17 73.17 56.33c7.17 0 12.99-5.82 12.99-13 0-7.18-5.82-13-12.99-13h-56.33v-28.71h100.1c4.96 0 9.44-1.99 12.71-5.27 3.23-3.22 5.25-7.72 5.25-12.68v-185.42c0-9.93-8.03-17.96-17.96-17.96z"/>
				<path class="s9" d="m262.14 196.1h-237.8c-12.88 0-23.35 10.47-23.35 23.34v185.42c0 6.23 2.43 12.09 6.84 16.5 4.4 4.41 10.27 6.84 16.51 6.84h59.13v17.93h-22.78c-10.14 0-18.38 8.25-18.38 18.39 0 10.13 8.24 18.38 18.38 18.38h157.67c10.13 0 18.38-8.25 18.38-18.38 0-10.14-8.25-18.39-18.38-18.39h-50.94v-17.93h94.64q0.04 0 0.08 0c12.87 0 23.34-10.47 23.34-23.34v-185.42c0-12.87-10.47-23.34-23.34-23.34zm-209.06 268.42c0-4.2 3.41-7.61 7.61-7.61h22.78v15.22h-22.78c-4.2 0-7.61-3.42-7.61-7.61zm41.16-125.27c0-9.45 7.69-17.14 17.14-17.14h28.13c9.45 0 17.14 7.69 17.14 17.14v132.88h-62.41zm124.12 117.66c4.19 0 7.61 3.41 7.61 7.61 0 4.2-3.42 7.61-7.61 7.61h-50.94v-15.22c0 0 50.94 0 50.94 0zm56.35-52.05c0 6.93-5.64 12.57-12.57 12.57h-0.04c-6.91-0.02-12.53-5.65-12.53-12.57 0-2.97-2.41-5.39-5.39-5.39-2.97 0-5.38 2.42-5.38 5.39 0 4.63 1.36 8.94 3.68 12.57h-75.06v-78.18c0-15.39-12.52-27.91-27.91-27.91h-28.13c-15.39 0-27.91 12.52-27.91 27.91v78.18h-59.13c-3.36 0-6.52-1.31-8.9-3.69-2.37-2.37-3.68-5.52-3.68-8.88v-185.41c0-6.94 5.64-12.58 12.58-12.58h218.15c-2.33 3.64-3.69 7.95-3.69 12.57v135.8c0 2.97 2.41 5.39 5.38 5.39 2.98 0 5.39-2.42 5.39-5.39v-135.8c0-6.93 5.64-12.56 12.57-12.56 6.93 0 12.57 5.63 12.57 12.56z"/>
				<g>
					<path class="s6" d="m64.97 333.42h-27.45c-2.97 0-5.38-2.41-5.38-5.39 0-2.97 2.41-5.38 5.38-5.38h27.45c2.97 0 5.38 2.41 5.38 5.38 0 2.98-2.41 5.39-5.38 5.39z"/>
					<path class="s6" d="m64.97 357.98h-27.45c-2.97 0-5.38-2.42-5.38-5.39 0-2.98 2.41-5.39 5.38-5.39h27.45c2.97 0 5.38 2.41 5.38 5.39 0 2.97-2.41 5.39-5.38 5.39z"/>
					<path class="s6" d="m64.97 382.53h-27.45c-2.97 0-5.38-2.42-5.38-5.39 0-2.97 2.41-5.39 5.38-5.39h27.45c2.97 0 5.38 2.42 5.38 5.39 0 2.97-2.41 5.39-5.38 5.39z"/>
				</g>
				<g>
					<path class="s6" d="m215.17 333.42h-27.44c-2.98 0-5.39-2.41-5.39-5.39 0-2.97 2.41-5.38 5.39-5.38h27.44c2.97 0 5.38 2.41 5.38 5.38 0 2.98-2.41 5.39-5.38 5.39z"/>
					<path class="s6" d="m215.17 357.98h-27.44c-2.98 0-5.39-2.42-5.39-5.39 0-2.98 2.41-5.39 5.39-5.39h27.44c2.97 0 5.38 2.41 5.38 5.39 0 2.97-2.41 5.39-5.38 5.39z"/>
					<path class="s6" d="m215.17 382.53h-27.44c-2.98 0-5.39-2.42-5.39-5.39 0-2.97 2.41-5.39 5.39-5.39h27.44c2.97 0 5.38 2.42 5.38 5.39 0 2.97-2.41 5.39-5.38 5.39z"/>
				</g>
			</g>
			<path class="s6" d="m316.56 451.52v26h-10.77v-26z"/>
			<g>
				<path class="s6" d="m64.59 64.42c2.53 2.73 1.02 7.36-3.62 7.03h-19.06q-4.77 0-4.77-4.07c0.03-2.95 1.8-3.94 4.77-3.95h4.45v-19.83c-1.28 0.61-4.84 3.29-6.31 3.13-3.72-0.05-5.22-6.01-1.82-7.74l8.79-5.11c3.76-2.47 9.54-1.67 9.45 3.52v26.03c2.04 0.1 6.72-0.46 8.12 0.99z"/>
				<path class="s6" d="m71.29 66.84q-3.79-5.11-3.79-14.78c0.06-10.98 3.63-19.65 14.78-19.82 11.09 0.18 14.72 8.86 14.77 19.82q0 9.67-3.79 14.78c-4.53 6.81-17.43 6.81-21.97 0zm14.77-5.39q1.16-2.85 1.16-9.39 0-6.48-1.16-9.33c-1.31-3.81-6.24-3.82-7.58-0.03-1.41 3.74-2.98 21.94 3.79 21.61q2.64 0 3.79-2.86z"/>
				<path class="s6" d="m130.49 64.42c2.53 2.73 1.02 7.36-3.62 7.03h-19.06q-4.78 0-4.78-4.07c0.04-2.95 1.81-3.94 4.78-3.95h4.45v-19.83c-1.28 0.61-4.85 3.29-6.32 3.13-3.71-0.05-5.21-6.01-1.81-7.74l8.79-5.11c3.75-2.47 9.53-1.67 9.44 3.52v26.03c2.05 0.1 6.73-0.46 8.13 0.99z"/>
				<path class="s6" d="m137.19 66.84q-3.79-5.11-3.79-14.78c0.06-10.98 3.63-19.65 14.78-19.82 11.08 0.18 14.72 8.86 14.77 19.82q0 9.67-3.79 14.78c-4.53 6.81-17.43 6.81-21.97 0zm14.77-5.39q1.16-2.85 1.16-9.39 0-6.48-1.16-9.33c-1.31-3.81-6.24-3.82-7.58-0.03-1.41 3.74-2.98 21.94 3.79 21.61q2.64 0 3.79-2.86z"/>
				<path class="s6" d="m170.14 66.84q-3.79-5.11-3.79-14.78c0.06-10.98 3.63-19.65 14.77-19.82 11.09 0.18 14.73 8.86 14.78 19.82q0 9.67-3.79 14.78c-4.53 6.81-17.44 6.81-21.97 0zm14.77-5.39q1.16-2.85 1.16-9.39 0-6.48-1.16-9.33c-1.31-3.81-6.24-3.82-7.58-0.03-1.41 3.74-2.98 21.94 3.79 21.61q2.64 0 3.79-2.86z"/>
			</g>
			<g>
				<path class="s6" d="m38.34 113.63q-3.79-5.11-3.79-14.77c0.06-10.99 3.63-19.66 14.78-19.83 11.09 0.18 14.72 8.87 14.77 19.83q0 9.66-3.79 14.77c-4.53 6.81-17.43 6.81-21.97 0zm14.78-5.38q1.15-2.86 1.15-9.39 0-6.48-1.15-9.34c-1.32-3.81-6.25-3.82-7.58-0.03-1.42 3.74-2.99 21.95 3.79 21.61q2.63 0 3.79-2.85z"/>
				<path class="s6" d="m71.29 113.63q-3.79-5.11-3.79-14.77c0.06-10.99 3.63-19.66 14.78-19.83 11.09 0.18 14.72 8.87 14.77 19.83q0 9.66-3.79 14.77c-4.53 6.81-17.43 6.81-21.97 0zm14.77-5.38q1.16-2.86 1.16-9.39 0-6.48-1.16-9.34c-1.31-3.81-6.24-3.82-7.58-0.03-1.41 3.74-2.98 21.95 3.79 21.61q2.64 0 3.79-2.85z"/>
				<path class="s6" d="m130.49 111.21c2.53 2.73 1.02 7.36-3.62 7.03h-19.06q-4.78 0-4.78-4.06c0.04-2.95 1.81-3.94 4.78-3.96h4.45v-19.82c-1.28 0.61-4.85 3.28-6.32 3.13-3.71-0.05-5.21-6.01-1.81-7.74l8.79-5.11c3.75-2.47 9.53-1.67 9.44 3.51v26.03c2.05 0.11 6.73-0.45 8.13 0.99z"/>
				<path class="s6" d="m163.44 111.21c2.52 2.73 1.02 7.36-3.62 7.03h-19.06q-4.78 0-4.78-4.06c0.04-2.95 1.81-3.94 4.78-3.96h4.45v-19.82c-1.28 0.61-4.85 3.28-6.32 3.13-3.71-0.05-5.21-6.01-1.81-7.74l8.78-5.11c3.76-2.47 9.54-1.67 9.45 3.51v26.03c2.05 0.11 6.73-0.45 8.13 0.99z"/>
				<path class="s6" d="m170.14 113.63q-3.79-5.11-3.79-14.77c0.06-10.99 3.63-19.66 14.77-19.83 11.09 0.18 14.73 8.87 14.78 19.83q0 9.66-3.79 14.77c-4.53 6.81-17.44 6.81-21.97 0zm14.77-5.38q1.16-2.86 1.16-9.39 0-6.48-1.16-9.34c-1.31-3.81-6.24-3.82-7.58-0.03-1.41 3.74-2.98 21.95 3.79 21.61q2.64 0 3.79-2.85z"/>
			</g>
			<path class="s7" d="m142.33 189.7c-12.15 0-21.54-15.42-22.9-36.67h-66.46c-29.4 0-53.32-23.92-53.32-53.32v-46.58c0-29.4 23.92-53.32 53.32-53.32h124.51c29.4 0 53.32 23.92 53.32 53.32v46.58c0 29.4-23.92 53.32-53.32 53.32h-12.26c-1.36 21.25-10.75 36.67-22.89 36.67zm-89.36-179.12c-23.46 0-42.55 19.09-42.55 42.55v46.58c0 23.46 19.09 42.55 42.55 42.55h71.68c2.97 0 5.39 2.41 5.39 5.38 0 19.1 7.28 31.29 12.29 31.29 5.01 0 12.29-12.19 12.29-31.29 0-2.97 2.41-5.38 5.39-5.38h17.47c23.46 0 42.55-19.09 42.55-42.55v-46.58c0-23.46-19.09-42.55-42.55-42.55 0 0-124.51 0-124.51 0z"/>
		</g>
	</g>
</svg>