<?xml version="1.0" encoding="utf-8"?>
<!-- Generator: Adobe Illustrator 27.5.0, SVG Export Plug-In . SVG Version: 6.00 Build 0)  -->
<svg version="1.1" xmlns="http://www.w3.org/2000/svg" xmlns:xlink="http://www.w3.org/1999/xlink" x="0px" y="0px"
     viewBox="252 58 220 156" style="enable-background:new 252 58 220 156;" xml:space="preserve">
    <g id="OBJECTS">
        <g>
		<path style="fill:#B2B8C4;" d="M423.304,175.904c19.559,9.112,18.321,34.295,18.321,34.295h-85.19l10.235-39.634L423.304,175.904z
			"/>
            <path style="fill:#70838E;" d="M381.59,196.852c-0.58,0-1.161-0.211-1.618-0.637c-2.63-2.449-3.694-5.607-2.996-8.892
			c0.016-0.077,0.036-0.153,0.06-0.227c0.43-1.8,1.394-3.577,2.799-5.152c0.873-0.98,2.375-1.066,3.354-0.192
			c0.979,0.873,1.065,2.375,0.192,3.354c-0.916,1.027-1.52,2.136-1.75,3.208c-0.012,0.054-0.025,0.106-0.039,0.158
			c-0.28,1.571,0.264,3.006,1.618,4.266c0.96,0.894,1.014,2.397,0.12,3.358C382.862,196.598,382.227,196.852,381.59,196.852z"/>
            <g>
			<path style="fill:#767576;" d="M261.6,130.926h90.937l0,0c3.391,0,6.346,2.31,7.165,5.6l13.284,57.952h26.332
				c4.341,0,7.86,3.519,7.86,7.86c0,4.341-3.519,7.86-7.86,7.86h-22.421l0.001,0.004h-15.225l0,0h-80.413
				c-6.183,0-11.571-4.213-13.063-10.213l-13.761-59.9C253.277,135.433,256.801,130.926,261.6,130.926z"/>
                <path style="fill:#95E0E8;" d="M288.413,181.008l-7.845-34.852c-0.565-2.511,1.344-4.898,3.918-4.898h62.519
				c1.882,0,3.512,1.307,3.92,3.144l7.75,34.852c0.558,2.508-1.351,4.888-3.92,4.888h-62.424
				C290.453,184.143,288.825,182.841,288.413,181.008z"/>
                <g>
				<path style="fill:#FFFFFF;" d="M299.393,158.253c1.053,0.781,1.369,2.747-0.581,2.619h-7.09
					c-1.597,0.137-2.789-1.542-2.116-2.619c0.395-0.554,2.216-0.322,2.895-0.368l-2.165-7.387c-0.428,0.244-1.468,1.234-2.008,1.167
					c-1.183,0.026-2.674-2.008-1.52-2.885l2.711-1.903c1.402-1.051,3.457-0.394,3.898,1.31l2.843,9.699
					C297.097,157.915,298.757,157.732,299.393,158.253z"/>
                    <path style="fill:#FFFFFF;" d="M302.15,159.154c-1.312-1.269-2.32-3.103-3.024-5.504c-0.7-2.387-0.765-4.215-0.197-5.484
					c1.318-2.922,6.175-2.159,8.162,0c2.266,1.937,4.521,8.305,3.231,10.988C309.007,162.078,304.122,161.31,302.15,159.154z
					 M307.058,157.148c0.215-1.323-1.191-5.901-2.045-6.978c-0.706-1.195-2.625-1.642-2.822-0.011
					c-0.08,1.748,1.355,8.159,3.769,8.052C306.613,158.212,306.979,157.858,307.058,157.148z"/>
                    <path style="fill:#FFFFFF;" d="M314.408,159.154c-1.312-1.269-2.32-3.103-3.024-5.504c-0.7-2.387-0.765-4.215-0.197-5.484
					c1.318-2.922,6.175-2.159,8.162,0c2.266,1.937,4.521,8.305,3.231,10.988C321.266,162.078,316.381,161.31,314.408,159.154z
					 M319.316,157.148c0.215-1.323-1.191-5.901-2.046-6.978c-0.706-1.195-2.625-1.642-2.822-0.011
					c-0.08,1.748,1.355,8.159,3.769,8.052C318.872,158.212,319.238,157.858,319.316,157.148z"/>
                    <path style="fill:#FFFFFF;" d="M336.169,158.253c1.054,0.78,1.369,2.747-0.58,2.619c0,0-7.09,0-7.09,0
					c-1.596,0.137-2.789-1.543-2.115-2.619c0.394-0.555,2.217-0.322,2.895-0.368l-2.165-7.387c-0.428,0.244-1.469,1.233-2.008,1.167
					c-1.183,0.026-2.674-2.008-1.52-2.885l2.712-1.903c1.402-1.051,3.457-0.394,3.898,1.31l2.843,9.699
					C333.873,157.915,335.533,157.732,336.169,158.253z"/>
                    <path style="fill:#FFFFFF;" d="M338.925,159.154c-1.311-1.269-2.319-3.103-3.023-5.504c-0.699-2.387-0.766-4.215-0.197-5.484
					c1.319-2.923,6.174-2.158,8.162,0c2.265,1.937,4.521,8.305,3.231,10.988C345.782,162.079,340.898,161.309,338.925,159.154z
					 M343.833,157.148c0.216-1.323-1.19-5.901-2.045-6.978c-0.707-1.195-2.625-1.641-2.823-0.011
					c-0.079,1.747,1.356,8.159,3.769,8.052C343.389,158.212,343.756,157.858,343.833,157.148z"/>
                    <path style="fill:#FFFFFF;" d="M295.189,177.236c-1.311-1.268-2.319-3.103-3.023-5.504c-0.7-2.387-0.766-4.216-0.197-5.484
					c1.319-2.923,6.174-2.158,8.162,0c2.265,1.936,4.521,8.305,3.231,10.988C302.046,180.161,297.163,179.391,295.189,177.236z
					 M300.098,175.23c0.217-1.323-1.19-5.901-2.045-6.978c-0.707-1.195-2.625-1.641-2.823-0.01
					c-0.079,1.747,1.356,8.159,3.769,8.052C299.653,176.294,300.02,175.94,300.098,175.23z"/>
                    <path style="fill:#FFFFFF;" d="M316.951,176.335c1.055,0.78,1.369,2.747-0.58,2.619c0,0-7.09,0-7.09,0
					c-1.595,0.137-2.789-1.544-2.116-2.619c0.395-0.554,2.216-0.322,2.895-0.368l-2.165-7.387c-0.436,0.249-1.463,1.23-2.008,1.167
					c-1.183,0.026-2.674-2.008-1.52-2.886l2.712-1.903c1.401-1.051,3.457-0.394,3.898,1.31c0,0,2.843,9.699,2.843,9.699
					C314.654,175.997,316.316,175.814,316.951,176.335z"/>
                    <path style="fill:#FFFFFF;" d="M319.707,177.236c-1.312-1.268-2.319-3.103-3.023-5.504c-0.7-2.387-0.766-4.216-0.197-5.484
					c1.319-2.923,6.174-2.158,8.162,0c2.265,1.936,4.521,8.305,3.231,10.988C326.564,180.161,321.681,179.391,319.707,177.236z
					 M324.615,175.23c0.217-1.323-1.19-5.901-2.045-6.978c-0.707-1.195-2.625-1.641-2.823-0.01
					c-0.079,1.747,1.356,8.159,3.769,8.052C324.171,176.294,324.538,175.94,324.615,175.23z"/>
                    <path style="fill:#FFFFFF;" d="M331.966,177.236c-1.312-1.268-2.319-3.103-3.023-5.504c-0.7-2.387-0.766-4.216-0.198-5.484
					c1.318-2.923,6.175-2.158,8.163,0c2.265,1.936,4.521,8.305,3.23,10.988C338.823,180.16,333.939,179.391,331.966,177.236z
					 M336.874,175.23c0.215-1.324-1.189-5.901-2.045-6.978c-0.706-1.195-2.625-1.641-2.822-0.01
					c-0.079,1.747,1.355,8.159,3.769,8.052C336.43,176.294,336.796,175.94,336.874,175.23z"/>
                    <path style="fill:#FFFFFF;" d="M344.225,177.236c-1.312-1.268-2.319-3.103-3.023-5.504c-0.7-2.387-0.766-4.216-0.198-5.484
					c1.318-2.923,6.175-2.158,8.163,0c2.265,1.936,4.521,8.305,3.23,10.988C351.082,180.16,346.198,179.391,344.225,177.236z
					 M349.133,175.23c0.215-1.324-1.189-5.901-2.045-6.978c-0.706-1.195-2.625-1.641-2.822-0.01
					c-0.079,1.747,1.355,8.159,3.769,8.052C348.689,176.294,349.055,175.94,349.133,175.23z"/>
			</g>
                <path style="fill:#5F5C5D;" d="M354.755,186.518h-62.424c-3.01,0-5.574-2.051-6.236-4.988l0,0l-7.845-34.852
				c-0.429-1.904,0.025-3.871,1.244-5.396c1.219-1.525,3.039-2.399,4.991-2.399h62.519c3.018,0,5.584,2.058,6.239,5.004l7.75,34.852
				c0.423,1.903-0.034,3.866-1.253,5.386C358.522,185.646,356.705,186.518,354.755,186.518z M290.731,180.486
				c0.17,0.754,0.828,1.28,1.6,1.28h62.424c0.685,0,1.096-0.385,1.28-0.614c0.184-0.229,0.47-0.714,0.322-1.382l-7.75-34.852
				c-0.168-0.756-0.827-1.285-1.601-1.285h-62.519c-0.686,0-1.097,0.386-1.281,0.616c-0.184,0.23-0.47,0.715-0.319,1.384
				L290.731,180.486z"/>
                <path style="fill:#5F5C5D;" d="M409.548,202.026c-0.164-5.471-4.902-9.923-10.56-9.923h-24.11l-12.8-55.864
				c-0.003-0.014-0.007-0.029-0.01-0.043c-1.079-4.337-4.843-7.478-9.154-7.639c-0.014-0.001-0.029-0.001-0.044-0.001l-0.288-0.005
				c-0.015,0-0.03,0-0.045,0h-86.303c-0.034-0.001-0.067-0.001-0.101,0H261.6c-3.023,0-5.826,1.366-7.688,3.748
				c-1.862,2.382-2.512,5.431-1.792,8.324l13.771,59.941c1.759,7.074,8.079,12.015,15.369,12.015h95.638
				c0.047,0,0.094-0.001,0.141-0.004h22.279c2.792,0,5.401-1.104,7.346-3.108C408.608,207.463,409.632,204.821,409.548,202.026z
				 M352.515,133.302l0.242,0.005c2.194,0.092,4.12,1.74,4.695,4.018l12.552,54.778H287.51c-2.69,0-5.033-1.816-5.704-4.42
				l-12.634-54.381H352.515z M270.511,199.458l-13.771-59.941c-0.374-1.505-0.041-3.07,0.915-4.292
				c0.956-1.222,2.393-1.923,3.945-1.923h2.695l12.889,55.482c0.004,0.016,0.007,0.032,0.011,0.047
				c1.199,4.725,5.441,8.024,10.315,8.024h27.856c3.117,0,5.723,2.384,5.811,5.314c0.045,1.499-0.504,2.916-1.546,3.99
				c-1.042,1.074-2.44,1.665-3.936,1.665c-0.028,0-0.056,0.003-0.084,0.004h-34.353
				C276.156,207.827,271.733,204.369,270.511,199.458z M403.254,206.158c-1.042,1.074-2.44,1.665-3.936,1.665h-22.421
				c-0.047,0-0.094,0.001-0.141,0.004h-52.416c1.094-1.714,1.65-3.715,1.587-5.801c-0.057-1.894-0.662-3.665-1.663-5.171h48.671
				c0.033,0.001,0.066,0.001,0.099,0h25.955c3.117,0,5.723,2.384,5.811,5.314C404.844,203.667,404.296,205.084,403.254,206.158z"/>
		</g>
            <g>
			<path style="fill:#B2B8C4;" d="M329.985,123.14c-7.016,0-12.704,2.462-12.704,9.478c0,7.016,5.688,12.704,12.704,12.704
				c7.016,0,12.704-5.688,12.704-12.704C342.689,125.602,337.001,123.14,329.985,123.14z"/>
                <path style="fill:#70838E;" d="M329.985,147.697c-8.315,0-15.08-6.764-15.08-15.079c0-7.533,5.496-11.854,15.079-11.854
				c9.583,0,15.08,4.321,15.08,11.854C345.064,140.933,338.3,147.697,329.985,147.697z M329.985,125.516
				c-10.328,0-10.328,5.346-10.328,7.103c0,5.695,4.633,10.328,10.328,10.328c5.695,0,10.328-4.633,10.328-10.328
				C340.313,125.516,332.539,125.516,329.985,125.516z"/>
		</g>
            <g>
			<path style="fill:#B2B8C4;" d="M353.515,61.667c8.218-5.806,28.362,10.791,37.136,18.667c5.009,0.028,11.347,0.776,18.534,2.045
				c7.2,1.205,13.424,2.618,18.154,4.266c10.906-4.495,35.434-13.399,41.237-5.186c5.763,8.157-5.47,25.896-11.015,33.708
				c3.424,8.981,3.651,18.212,2.329,25.899c-1.143,6.647-3.077,13.15-5.812,19.515c-5.338,12.423-17.294,20.611-30.808,21.01
				c-10.436,0.304-20.696-0.411-30.781-2.145c-10.085-1.735-19.994-4.489-29.728-8.262c-12.604-4.892-21.137-16.604-22.017-30.096
				c-0.451-6.913-0.101-13.688,1.043-20.336c1.322-7.686,4.618-16.307,10.843-23.627C350.023,87.918,345.356,67.432,353.515,61.667z
				"/>
                <g>
				<g>
					<path style="fill:#95A1B3;" d="M357.961,144.666c-0.134,0-0.269-0.011-0.406-0.035l-10.467-1.801
						c-1.293-0.222-2.161-1.451-1.938-2.744c0.223-1.293,1.45-2.162,2.744-1.938l10.467,1.801c1.293,0.222,2.161,1.451,1.939,2.744
						C360.1,143.849,359.096,144.666,357.961,144.666z"/>
                    <path style="fill:#95A1B3;" d="M347.701,153.025c-1.122,0-2.12-0.798-2.333-1.94c-0.241-1.29,0.61-2.531,1.9-2.771l9.109-1.699
						c1.289-0.24,2.53,0.61,2.771,1.9c0.241,1.29-0.61,2.531-1.9,2.771l-9.109,1.699
						C347.992,153.012,347.845,153.025,347.701,153.025z"/>
				</g>
                    <g>
					<path style="fill:#95A1B3;" d="M431.071,157.241c-0.134,0-0.269-0.012-0.405-0.035l-10.467-1.8
						c-1.293-0.222-2.161-1.451-1.939-2.744c0.222-1.293,1.451-2.161,2.744-1.938l10.467,1.8c1.293,0.222,2.161,1.451,1.939,2.744
						C433.21,156.424,432.206,157.241,431.071,157.241z"/>
                        <path style="fill:#95A1B3;" d="M427.472,166.746c-0.404,0-0.814-0.103-1.189-0.321l-8.018-4.645
						c-1.135-0.658-1.523-2.111-0.865-3.246c0.658-1.135,2.111-1.523,3.246-0.865l8.018,4.645c1.135,0.658,1.522,2.111,0.865,3.246
						C429.089,166.321,428.292,166.746,427.472,166.746z"/>
				</g>
			</g>
                <g>
				<path style="fill:#95A1B3;" d="M401.229,85.895c-1.893,11.003-0.224,20.467,3.71,21.144c3.943,0.678,8.678-7.685,10.57-18.688
					c0.259-1.508,0.453-2.984,0.577-4.411c-4.606-1.009-9.248-1.808-13.928-2.387C401.798,82.94,401.487,84.396,401.229,85.895z"/>
                    <g>
					<path style="fill:#95A1B3;" d="M417.185,84.918c-1.891,10.995-0.233,20.466,3.71,21.144c3.791,0.652,8.336-7.11,10.352-17.52
						c-2.342-1.062-4.799-1.953-7.349-2.661c-2.186-0.602-4.38-1.161-6.584-1.662C417.264,84.455,417.225,84.682,417.185,84.918z"/>
                        <path style="fill:#95A1B3;" d="M386.349,80.725c-1.602,10.524,0.079,19.409,3.887,20.064
						c3.943,0.678,8.671-7.695,10.562-18.689c0.041-0.236,0.08-0.464,0.112-0.701c-2.576-0.304-5.173-0.534-7.773-0.704
						C390.847,80.544,388.58,80.562,386.349,80.725z"/>
				</g>
			</g>
                <path style="fill:#FFFFFF;" d="M358.818,80.006c0,0-1.581,2.383-2.263,5.24c-0.636,2.64,0.622,4.956,2.582,6.169
				c5.288-4.269,11.455-7.441,18.114-9.237c0.19-1.459-0.172-2.987-1.167-4.26c-3.995-5.119-9.742-10.888-14.701-9.798
				C352.745,70.027,358.818,80.006,358.818,80.006z"/>
                <path style="fill:#FFFFFF;" d="M457.457,96.972c0,0,0.694,2.774,0.382,5.695c-0.283,2.701-2.242,4.463-4.495,4.952
				c-3.558-5.79-8.31-10.841-13.986-14.758c0.308-1.439,1.16-2.758,2.523-3.626c5.475-3.491,12.82-7.007,17.13-4.323
				C466.515,89.596,457.457,96.972,457.457,96.972z"/>
                <g>
				<path style="fill:#70838E;" d="M377.693,151.261c-0.154,1.049-0.15,2.079-0.011,3.078c0.172,1.229,0.542,2.411,1.101,3.493
					c0.866,1.718,2.178,3.185,3.805,4.243c1.297,0.841,2.797,1.43,4.44,1.659c3.588,0.515,7.022-0.759,9.392-3.151
					c1.251-1.259,2.204-2.824,2.738-4.592c0.158-0.512,0.275-1.047,0.352-1.597c0.204-1.422,0.094-2.607-0.261-3.605
					c-0.713-1.928-2.376-3.138-4.577-3.948c-1.473-0.54-3.2-0.895-5.054-1.158c-4.603-0.664-8.632-0.572-10.663,2.201
					C378.319,148.737,377.896,149.848,377.693,151.261z"/>
                    <path style="fill:#E27FA3;" d="M382.488,162.298c1.593,1.079,3.453,1.723,5.388,1.855c1.542,0.104,3.139-0.112,4.686-0.711
					c3.385-1.296,5.765-4.08,6.672-7.323c-1.565-1.053-3.39-1.701-5.293-1.845c-1.537-0.115-3.14,0.085-4.69,0.676
					C385.822,156.226,383.41,159.022,382.488,162.298z"/>
                    <path style="fill:#70838E;" d="M398.542,146.171c-1.517-1.095-3.474-1.871-6.174-2.431l0.435-2.527l0.598,0.103
					c0.136,0.024,0.272,0.035,0.405,0.035c1.135,0,2.139-0.817,2.339-1.973c0.223-1.293-0.645-2.522-1.938-2.744l-5.88-1.011
					c-1.295-0.224-2.522,0.646-2.744,1.939c-0.222,1.293,0.646,2.522,1.939,2.744l0.598,0.103l-0.456,2.649
					c-2.812-0.238-4.946-0.047-6.737,0.588c-2.185,0.774-4.929,2.665-5.591,7.28c-0.508,3.543,0.394,7.071,2.54,9.936
					c2.146,2.864,5.279,4.721,8.821,5.229c0.645,0.092,1.29,0.138,1.93,0.138c2.875,0,5.662-0.923,8.005-2.678
					c2.864-2.146,4.721-5.279,5.229-8.821C402.523,150.115,400.421,147.528,398.542,146.171z M397.158,154.055L397.158,154.055
					c-0.328,2.287-1.526,4.308-3.375,5.694c-1.849,1.384-4.125,1.967-6.412,1.639c-2.286-0.328-4.308-1.527-5.693-3.375
					c-1.385-1.849-1.967-4.126-1.639-6.412c0.346-2.413,1.445-3.111,2.474-3.476c0.868-0.307,1.926-0.415,3.008-0.415
					c1.32,0,2.675,0.161,3.766,0.317c1.985,0.285,4.816,0.801,6.473,1.998C396.646,150.663,397.504,151.642,397.158,154.055z"/>
			</g>
                <path style="fill:#70838E;" d="M470.521,80.086c-6.141-8.692-26.726-2.707-43.258,4.028c-4.551-1.503-10.462-2.869-17.664-4.074
				c-7.201-1.272-13.231-1.961-18.023-2.066c-13.326-11.875-30.727-24.396-39.427-18.249c-4.262,3.011-6.105,9.248-5.478,18.536
				c0.44,6.518,1.992,13.348,3.34,18.291c-6.946,8.61-9.575,18.044-10.564,23.796c-1.174,6.808-1.535,13.838-1.072,20.896
				c0.937,14.349,10.17,26.97,23.524,32.152c6.643,2.58,13.454,4.708,20.322,6.358c-0.883,0.668-1.683,1.401-2.388,2.194
				c-0.871,0.981-0.783,2.482,0.198,3.354c0.98,0.871,2.482,0.783,3.354-0.198c1.076-1.211,5.252-5.161,13.809-5.161
				c4.709,0,9.113,2.225,13.091,6.617c1.418,1.561,2.797,3.42,4.095,5.521c4.707,7.644,6.956,16.224,7.533,18.671
				c0.258,1.093,1.233,1.831,2.31,1.831c0.181,0,0.364-0.021,0.547-0.064c1.277-0.301,2.068-1.581,1.767-2.858
				c-0.793-3.362-3.17-12.047-8.113-20.075c-1.292-2.092-2.665-3.977-4.087-5.617c1.445,0.039,2.897,0.064,4.357,0.064
				c1.543,0,3.092-0.022,4.644-0.066c2.158-0.064,4.284-0.322,6.359-0.754c10.206,10.201,9.564,26.701,9.556,26.87
				c-0.063,1.309,0.947,2.422,2.256,2.486c0.04,0.002,0.079,0.003,0.119,0.003c1.258,0,2.308-0.988,2.371-2.259
				c0.036-0.735,0.7-16.909-9.185-28.556c9.463-3.449,17.348-10.695,21.447-20.241c2.789-6.494,4.798-13.241,5.971-20.052
				c0.989-5.754,1.661-15.526-2.006-25.957C467.094,105.633,476.744,88.894,470.521,80.086z M457.548,140.66
				c-1.11,6.444-3.012,12.831-5.655,18.983c-4.948,11.52-16.212,19.204-28.694,19.575c-4.854,0.137-9.677,0.046-14.354-0.257
				c-3.614-2.503-7.513-3.77-11.652-3.77c-2.876,0-5.645,0.419-8.178,1.191c-8.581-1.712-17.122-4.203-25.397-7.416
				c-11.638-4.516-19.685-15.519-20.502-28.032c-0.438-6.685-0.097-13.34,1.014-19.78c1.221-7.104,5.175-20.383,17.941-29.502
				c1.068-0.763,1.315-2.246,0.552-3.314c-0.763-1.067-2.246-1.315-3.314-0.552c-2.021,1.444-3.836,2.982-5.478,4.577
				c-3.661-14.818-3.311-25.669,1.059-28.757c4.2-2.97,15.67,2.764,29.846,14.726c-2.794,0.356-5.51,0.861-8.085,1.524
				c-1.27,0.328-2.035,1.623-1.707,2.894c0.328,1.271,1.624,2.034,2.894,1.707c2.778-0.716,5.737-1.246,8.793-1.574
				c4.861-0.519,12.31,0.099,22.162,1.839c9.846,1.648,17.074,3.555,21.48,5.667c2.772,1.331,5.384,2.819,7.763,4.423
				c0.407,0.275,0.869,0.406,1.326,0.406c0.763,0,1.513-0.368,1.972-1.048c0.733-1.088,0.446-2.564-0.642-3.298
				c-2.203-1.485-4.592-2.867-7.105-4.135c17.362-6.533,30.088-8.105,33.052-3.91c3.093,4.378-0.205,14.722-8.615,27.457
				c-1.014-2.053-2.211-4.109-3.634-6.145c-0.751-1.076-2.232-1.337-3.308-0.586c-1.075,0.751-1.338,2.233-0.587,3.308
				C459.477,119.712,458.77,133.554,457.548,140.66z"/>
                <g>
				<g>
					<path style="fill:#B5F6F8;" d="M400.167,130.911c-1.044,5.874,0.705,11.605,4.298,15.812c2.787,3.272,6.672,5.623,11.233,6.434
						c1.721,0.306,3.436,0.372,5.095,0.218c8.408-0.757,15.602-7.036,17.151-15.75c1.274-7.169-1.614-14.114-6.937-18.361
						l-0.009-0.002c-2.414-1.937-5.329-3.304-8.585-3.883c-2.396-0.426-4.759-0.388-7.015,0.06
						C407.839,116.902,401.594,122.882,400.167,130.911z"/>
                    <path style="fill:#B5F6F8;" d="M346.655,121.4c-0.977,5.495,0.493,10.861,3.626,14.977c2.805,3.705,6.965,6.391,11.905,7.269
						c1.563,0.278,3.115,0.353,4.639,0.261c8.604-0.57,16.03-6.922,17.607-15.793c1.333-7.502-1.897-14.775-7.694-18.935
						c-2.258-1.632-4.914-2.791-7.837-3.311c-2.534-0.451-5.047-0.382-7.411,0.143C354.108,107.6,348.058,113.509,346.655,121.4z"/>
                    <path style="fill:#E6FCFC;" d="M350.282,136.377c2.805,3.705,6.965,6.391,11.905,7.269c1.563,0.278,3.115,0.353,4.639,0.261
						c-4.086-9.543-1.214-14.376,6.277-15.345c7.326-0.95,7.731-11.661,3.636-19.383c-2.258-1.632-4.914-2.791-7.837-3.311
						c-2.534-0.451-5.047-0.382-7.411,0.143c4.385,7.755,4.127,18.921-3.364,19.889
						C352.042,126.689,349.004,130.033,350.282,136.377z"/>
                    <path style="fill:#E6FCFC;" d="M404.465,146.723c2.787,3.272,6.672,5.623,11.233,6.434c1.721,0.306,3.436,0.372,5.095,0.218
						c-4.016-9.455-1.132-14.247,6.32-15.213c7.179-0.928,7.709-11.216,3.894-18.898l-0.009-0.002
						c-2.414-1.937-5.329-3.304-8.585-3.883c-2.396-0.426-4.759-0.388-7.015,0.06c4.498,7.765,4.289,19.084-3.26,20.061
						C405.818,136.324,402.789,139.889,404.465,146.723z"/>
                    <path style="fill:#5F5C5D;" d="M470.169,125.57c-3.109-4.454-9.123-5.64-13.691-2.7l-15.9,10.234
						c-0.528-9.772-7.711-18.28-17.752-20.064c-10.495-1.865-20.589,4.239-24.066,13.955c-2.632-1.531-6.773-3.141-11.661-2.202
						c0.022-10.267-7.333-19.407-17.783-21.264c-11.705-2.08-22.92,5.75-25,17.454c-1.008,5.67,0.253,11.393,3.549,16.115
						c3.297,4.722,8.235,7.878,13.905,8.885c1.274,0.227,2.551,0.339,3.819,0.338c4.373,0,8.636-1.332,12.296-3.888
						c4.346-3.034,7.361-7.462,8.599-12.568c5.078-1.696,9.343,0.733,11.142,2.042c-1.238,11.181,6.42,21.59,17.652,23.587
						c1.271,0.226,2.535,0.335,3.783,0.335c9.904,0,18.746-6.869,21.004-16.747l18.982-12.218c2.409-1.551,5.582-0.926,7.223,1.424
						c0.751,1.076,2.232,1.339,3.308,0.588C470.657,128.127,470.92,126.646,470.169,125.57z M382.094,127.699
						c-0.786,4.421-3.246,8.27-6.927,10.841c-3.681,2.57-8.143,3.553-12.564,2.767c-4.421-0.786-8.271-3.246-10.841-6.927
						c-2.57-3.681-3.553-8.143-2.767-12.564c1.446-8.135,8.551-13.869,16.542-13.869c0.973,0,1.959,0.085,2.949,0.261
						C377.611,109.829,383.716,118.573,382.094,127.699z M416.112,150.818c-9.125-1.622-15.23-10.366-13.608-19.491
						c1.622-9.125,10.365-15.228,19.491-13.608c9.126,1.622,15.23,10.366,13.608,19.492
						C433.981,146.335,425.238,152.439,416.112,150.818z"/>
				</g>
                    <g>
					<path style="fill:#63D3D6;" d="M418.336,139.59c0.691-3.826-1.439-7.414-4.756-8.012c-3.317-0.599-6.566,2.018-7.257,5.844
						c-0.691,3.826,1.439,7.414,4.756,8.012C414.397,146.033,417.645,143.417,418.336,139.59z"/>
                        <path style="fill:#63D3D6;" d="M374.637,131.689c0.69-3.826-1.439-7.414-4.756-8.012c-3.317-0.599-6.566,2.018-7.257,5.844
						c-0.69,3.826,1.439,7.414,4.756,8.012C370.698,138.132,373.947,135.516,374.637,131.689z"/>
				</g>
			</g>
		</g>
	</g>
</g>
</svg>
