<svg version="1.2" xmlns="http://www.w3.org/2000/svg" viewBox="0 48 356 432" width="356" height="432">
	<style>
		.s0 { fill: #b2b8c4 } 
		.s1 { fill: #70838e } 
		.s2 { fill: #95a1b3 } 
		.s3 { fill: #ffffff } 
		.s4 { fill: #e27fa3 } 
		.s5 { fill: #767576 } 
		.s6 { fill: #5f5c5d } 
		.s7 { fill: #b5f6f8 } 
		.s8 { fill: #e6fcfc } 
		.s9 { fill: #63d3d6 } 
	</style>
	<g id="OBJECTS">
		<g>
			<path class="s0" d="m151.84 471.24c-29.64 0-53.59-14.22-53.59-31.8 0-17.59 23.95-31.8 53.59-31.8 29.63 0 53.58 14.21 53.58 31.8 0 17.58-23.95 31.8-53.58 31.8z"/>
			<path class="s0" d="m153.7 438.94c0 0-3.84 22.86-45.4 18.25-11.48-1.27-19.98-11.33-19.42-22.87 2.37-48.62 28.73-76.85 28.73-76.85l120.52-21.18 90.99 21.18-37.56 113.77-115.62-13.43z"/>
			<path class="s1" d="m213.44 455.82l-9.88-4.27c1.36-3.16 33.9-77.41 74.42-77.41v10.76c-27.78 0-56.01 51.19-64.54 70.92z"/>
			<g>
				<path class="s0" d="m309.32 55.8c-21.41-15.13-73.9 28.12-96.77 48.64-13.05 0.08-29.57 2.02-48.29 5.33-18.77 3.14-34.99 6.82-47.31 11.12-28.42-11.72-92.34-34.92-107.46-13.52-15.01 21.26 14.26 67.48 28.71 87.84-8.93 23.4-9.52 47.45-6.07 67.49q4.46 25.97 15.14 50.85c13.91 32.37 45.07 53.71 80.28 54.75q40.79 1.19 80.21-5.59 39.42-6.78 77.47-21.53c32.84-12.75 55.08-43.27 57.37-78.43q1.76-27.01-2.72-52.99c-3.44-20.03-12.03-42.49-28.25-61.57 6.79-23.98 18.95-77.37-2.31-92.39z"/>
				<g>
					<g>
						<path class="s2" d="m297.74 271.27c-2.57 0-4.85-1.85-5.3-4.47-0.51-2.93 1.46-5.71 4.39-6.21l27.27-4.7c2.94-0.5 5.72 1.46 6.22 4.39 0.51 2.93-1.46 5.72-4.39 6.22l-27.27 4.69q-0.47 0.08-0.92 0.08z"/>
						<path class="s2" d="m324.47 293.06q-0.49 0-0.99-0.09l-23.74-4.43c-2.92-0.55-4.85-3.36-4.3-6.28 0.54-2.92 3.35-4.85 6.28-4.3l23.73 4.42c2.92 0.55 4.85 3.36 4.31 6.28-0.49 2.59-2.75 4.4-5.29 4.4z"/>
					</g>
					<g>
						<path class="s2" d="m107.22 304.04c-2.57 0-4.84-1.85-5.29-4.47-0.51-2.93 1.46-5.71 4.39-6.21l27.27-4.7c2.93-0.5 5.72 1.46 6.22 4.39 0.5 2.93-1.46 5.72-4.39 6.22l-27.28 4.69q-0.46 0.08-0.92 0.08z"/>
						<path class="s2" d="m116.6 328.81c-1.86 0-3.66-0.96-4.66-2.68-1.49-2.58-0.61-5.87 1.96-7.36l20.89-12.1c2.57-1.49 5.87-0.62 7.36 1.96 1.49 2.57 0.61 5.86-1.96 7.35l-20.9 12.11c-0.85 0.49-1.77 0.72-2.69 0.72z"/>
					</g>
				</g>
				<g>
					<path class="s2" d="m184.99 118.94c4.93 28.67 0.58 53.33-9.67 55.09-10.28 1.77-22.61-20.02-27.54-48.69q-1.02-5.91-1.51-11.5 18.01-3.95 36.3-6.22 1.4 5.44 2.42 11.32z"/>
					<g>
						<path class="s2" d="m143.41 116.39c4.93 28.65 0.61 53.33-9.67 55.1-9.88 1.7-21.72-18.53-26.97-45.66 6.1-2.76 12.5-5.08 19.15-6.93q8.54-2.36 17.16-4.33 0.18 0.91 0.33 1.82z"/>
						<path class="s2" d="m223.76 105.46c4.18 27.43-0.2 50.58-10.13 52.29-10.27 1.76-22.59-20.05-27.52-48.71q-0.16-0.91-0.29-1.82 10.08-1.18 20.25-1.83c5.97-0.4 11.88-0.35 17.69 0.07z"/>
					</g>
				</g>
				<path class="s3" d="m295.5 103.59c0 0 4.12 6.21 5.9 13.66 1.66 6.88-1.62 12.91-6.73 16.07-13.78-11.12-29.85-19.39-47.2-24.07-0.5-3.8 0.45-7.78 3.04-11.1 10.41-13.34 25.39-28.37 38.31-25.53 22.51 4.97 6.68 30.97 6.68 30.97z"/>
				<path class="s3" d="m38.47 147.8c0 0-1.81 7.23-1 14.84 0.74 7.04 5.84 11.63 11.71 12.91 9.27-15.09 21.66-28.25 36.45-38.46-0.81-3.75-3.02-7.19-6.58-9.45-14.26-9.09-33.4-18.26-44.63-11.26-19.56 12.2 4.05 31.42 4.05 31.42z"/>
				<g>
					<path class="s1" d="m246.32 289.27c0.4 2.73 0.39 5.42 0.03 8.02-0.45 3.2-1.42 6.28-2.87 9.1-2.26 4.48-5.68 8.3-9.92 11.06-3.37 2.19-7.29 3.72-11.57 4.32-9.35 1.34-18.29-1.98-24.47-8.21-3.26-3.28-5.74-7.36-7.14-11.97q-0.61-2-0.92-4.16c-0.53-3.7-0.24-6.79 0.69-9.39 1.85-5.02 6.19-8.18 11.92-10.29 3.84-1.41 8.34-2.33 13.17-3.01 12-1.73 22.5-1.49 27.79 5.73 1.66 2.22 2.76 5.12 3.29 8.8z"/>
					<path class="s4" d="m243.48 306.39c-2.26 4.48-5.68 8.3-9.92 11.06-3.37 2.19-7.29 3.72-11.57 4.32-9.35 1.34-18.29-1.98-24.47-8.21 2.23-4.38 5.56-8.17 9.71-10.91 3.35-2.21 7.26-3.79 11.53-4.41 9.43-1.44 18.46 1.87 24.72 8.15z"/>
					<path class="s1" d="m251.66 288.51c-2.91-20.29-20.94-20.89-32-19.78l-1.45-8.4 2.36-0.41c2.93-0.5 4.9-3.29 4.39-6.22-0.5-2.92-3.28-4.89-6.22-4.39l-15.31 2.64c-2.93 0.5-4.9 3.29-4.4 6.22 0.45 2.62 2.73 4.47 5.3 4.47q0.46 0 0.92-0.08l2.36-0.41 1.39 8.12c-10.94 2.1-27.75 7.81-24.86 27.92 2.43 16.98 17.06 29.27 33.74 29.27q2.41 0 4.86-0.35c18.62-2.67 31.59-19.98 28.92-38.6zm-30.45 27.95c-12.74 1.83-24.59-7.05-26.42-19.79-0.96-6.76 1.62-9.58 3.97-11.28 3.4-2.45 8.88-4.15 17.23-5.35 19.33-2.77 23.8 1.57 25.01 10 1.83 12.74-7.05 24.59-19.79 26.42z"/>
				</g>
			</g>
			<path class="s1" d="m345.19 208.85c-2.58-14.98-9.44-39.58-27.62-61.96 8.22-30 17.47-79.5-5.15-95.49-11.37-8.03-28.96-4.51-53.76 10.76-17.91 11.02-35.83 25.91-48.2 36.94-12.48 0.25-28.25 2.04-47.1 5.37-18.92 3.16-34.38 6.74-46.24 10.68-42.85-17.48-96.3-33.15-112.04-10.89-16 22.66 9.28 66.21 27.07 91.72-9.66 27.17-7.91 52.65-5.33 67.63 3.04 17.68 8.26 35.2 15.5 52.06 11.27 26.24 33.6 45.74 60.13 53.87-8 13.56-17.54 35.51-18.95 64.52-0.69 14.39 9.93 26.9 24.2 28.48q6.03 0.66 11.15 0.65c23.06 0 32.99-9.26 37.19-16.13 3.39 1.96 7.14 3.48 11.18 4.15q2.31 0.38 4.6 0.38c7.14 0 14.04-2.8 20.58-8.34 12.72-10.78 17.1-25.96 11.73-40.6-6.35-17.32-24.18-28.51-45.42-28.51-13.87 0-28.18 8.52-42.53 25.35-1.93 2.26-1.66 5.66 0.6 7.59 2.26 1.93 5.66 1.66 7.59-0.61 12.2-14.31 23.77-21.57 34.34-21.57 16.67 0 30.53 8.43 35.31 21.47 3.81 10.37 0.69 20.82-8.58 28.67-5.48 4.66-10.86 6.47-16.44 5.55-13.14-2.14-23.17-18.52-23.27-18.68-1.52-2.55-4.83-3.38-7.38-1.84-2.55 1.52-3.38 4.82-1.85 7.37 0.28 0.48 4.25 6.99 10.87 13.13-2.56 4.83-11.13 14.31-38.49 11.27-8.63-0.96-15.06-8.53-14.63-17.27 1.4-28.81 11.7-50.28 19.23-62.34q6.84 1.23 13.9 1.45 6.1 0.18 12.19 0.18c16.88 0 33.7-1.03 50.16-3.05 2.95-0.37 5.04-3.05 4.68-6-0.37-2.95-3.05-5.06-6-4.69-19.88 2.46-40.31 3.4-60.71 2.8-32.84-0.97-62.47-21.18-75.49-51.49-6.91-16.09-11.89-32.8-14.79-49.65-3.2-18.64-5.06-54.94 18.51-88.67 1.7-2.43 1.11-5.79-1.33-7.49-2.43-1.71-5.79-1.11-7.49 1.32-3.98 5.69-7.29 11.44-10.03 17.17-23.02-34.43-31.69-61.63-23.21-73.64 8.16-11.55 41.71-7.43 88.78 10.54-7.12 3.51-13.87 7.39-20.05 11.56-2.47 1.66-3.12 5.01-1.46 7.47 1.04 1.55 2.74 2.38 4.47 2.38 1.03 0 2.08-0.3 3-0.92 6.23-4.2 13.08-8.1 20.33-11.58 11.56-5.54 30.46-10.53 56.24-14.85 25.69-4.53 45.19-6.15 57.92-4.79 8.01 0.86 15.76 2.25 23.03 4.12 2.88 0.75 5.82-0.99 6.56-3.86 0.74-2.88-0.99-5.82-3.87-6.56-7.23-1.87-14.9-3.26-22.79-4.18 38.35-32.69 68.59-47.79 80.17-39.61 11.98 8.46 12.9 37 2.74 77.15-4.5-4.48-9.54-8.79-15.19-12.82-2.42-1.73-5.78-1.17-7.5 1.25-1.73 2.42-1.17 5.78 1.25 7.51 33.48 23.91 43.86 58.75 47.07 77.39 2.9 16.85 3.79 34.25 2.65 51.73-2.15 32.92-23.32 61.87-53.95 73.76-2.77 1.07-4.15 4.19-3.07 6.96 0.83 2.13 2.86 3.44 5.02 3.44q0.98 0 1.94-0.37c34.52-13.39 58.38-46.01 60.8-83.09 1.2-18.32 0.27-36.57-2.77-54.25z"/>
			<g>
				<path class="s5" d="m177.55 434.75h70.01l22.41-90.1c1.9-7.64 8.76-13 16.63-13h177.43c11.14 0 19.31 10.46 16.63 21.27l-23.53 94.62c-3.46 13.92-15.96 23.7-30.31 23.7h-153.01-35.33v-0.01h-60.93c-10.08 0-18.24-8.16-18.24-18.24 0-10.07 8.16-18.24 18.24-18.24z"/>
				<path class="s6" d="m481.77 334.92c-4.3-5.5-10.76-8.65-17.74-8.65h-177.43q-0.11 0-0.22 0.01-0.32 0-0.65 0.01c-9.94 0.37-18.63 7.62-21.12 17.63l-21.26 85.45h-65.04c-13.06 0-24 10.27-24.37 22.9-0.2 6.45 2.17 12.55 6.65 17.17 4.49 4.62 10.51 7.17 16.96 7.17h60.61q0.16 0.01 0.32 0.01h13.89 174.45c16.86 0 31.47-11.42 35.54-27.78l23.52-94.62c1.68-6.77 0.18-13.81-4.11-19.3zm-6.34 16.7l-23.52 94.62c-2.87 11.55-13.19 19.62-25.09 19.62h-150.14c3.54-3.92 6.18-8.72 7.52-14.13 0.72-2.88-1.04-5.8-3.92-6.52-2.89-0.72-5.81 1.04-6.52 3.92-2.45 9.85-11.25 16.73-21.39 16.73h-13.57q-0.16-0.01-0.32-0.01h-60.93c-3.51 0-6.79-1.39-9.23-3.91-2.44-2.51-3.73-5.83-3.63-9.35 0.21-6.87 6.32-12.46 13.62-12.46h69.25c2.47 0 4.62-1.68 5.22-4.08l22.27-89.54c1.34-5.38 5.9-9.27 11.08-9.46 3.75-0.16 7.23 1.43 9.58 4.32 2.35 2.9 3.19 6.63 2.29 10.25l-14.38 57.85c-0.72 2.88 1.04 5.8 3.92 6.52 2.88 0.71 5.8-1.04 6.52-3.92l14.38-57.85c1.48-5.95 0.51-12.06-2.64-17.18h158.23c3.64 0 7.01 1.64 9.25 4.51 2.25 2.86 3.03 6.54 2.15 10.07z"/>
			</g>
			<g>
				<g>
					<path class="s7" d="m187.75 236.24c2.73 15.31-1.83 30.24-11.2 41.2-7.26 8.53-17.38 14.66-29.27 16.77-4.48 0.8-8.95 0.97-13.27 0.57-21.91-1.97-40.66-18.34-44.69-41.04-3.33-18.68 4.2-36.78 18.07-47.85h0.03c6.29-5.05 13.88-8.61 22.37-10.12 6.24-1.11 12.4-1.01 18.28 0.16 19.69 3.81 35.96 19.39 39.68 40.31z"/>
					<path class="s7" d="m327.19 211.46c2.55 14.31-1.28 28.3-9.45 39.02-7.31 9.66-18.14 16.66-31.02 18.94-4.07 0.73-8.11 0.92-12.09 0.69-22.41-1.49-41.77-18.04-45.88-41.16-3.47-19.54 4.95-38.5 20.05-49.34 5.89-4.25 12.81-7.27 20.42-8.63 6.61-1.17 13.16-0.99 19.32 0.38 19.23 4.14 35 19.53 38.65 40.1z"/>
					<path class="s8" d="m317.75 250.48c-7.31 9.66-18.15 16.66-31.03 18.94-4.07 0.73-8.11 0.92-12.08 0.69 10.65-24.87 3.16-37.47-16.36-39.99-19.09-2.47-20.15-30.38-9.48-50.51 5.89-4.25 12.81-7.27 20.43-8.63 6.6-1.17 13.15-0.99 19.31 0.38-11.43 20.2-10.76 49.3 8.76 51.82 15.86 2.06 23.78 10.77 20.45 27.3z"/>
					<path class="s8" d="m176.55 277.44c-7.26 8.53-17.38 14.66-29.27 16.77-4.48 0.8-8.95 0.97-13.27 0.57 10.46-24.64 2.95-37.13-16.47-39.64-18.71-2.42-20.09-29.23-10.15-49.25h0.03c6.28-5.05 13.88-8.61 22.37-10.12 6.24-1.11 12.4-1.01 18.28 0.16-11.73 20.23-11.18 49.73 8.49 52.27 16.47 2.14 24.36 11.43 19.99 29.24z"/>
					<path class="s6" d="m332.5 210.51c-2.59-14.56-10.7-27.24-22.83-35.71-12.12-8.47-26.82-11.71-41.39-9.12-14.56 2.59-27.24 10.7-35.71 22.82-6.8 9.75-10.22 21.15-9.96 32.8-13.45-2.92-24.79 1.77-31.62 5.92-8.62-25.49-34.86-41.6-62.14-36.75-26.27 4.66-44.93 27.24-45.67 52.92l-42.6-27.42c-11.54-7.43-26.73-4.43-34.58 6.82-1.7 2.43-1.1 5.79 1.33 7.49 2.44 1.7 5.8 1.1 7.5-1.33 4.52-6.48 13.27-8.21 19.92-3.93l49.74 32.02c5.68 25.54 28.47 43.33 54.02 43.33q4.81 0 9.72-0.86c29-5.16 48.73-32.15 45.29-61.04 4.61-3.46 16.42-10.52 30.56-5.57 3.11 13.3 10.91 24.83 22.19 32.71 9.41 6.56 20.35 9.99 31.58 9.99q4.9 0 9.81-0.87c14.57-2.59 27.25-10.7 35.72-22.82 8.47-12.13 11.7-26.83 9.12-41.4zm-186.15 78.4c-24.22 4.31-47.43-11.9-51.73-36.11-4.31-24.22 11.89-47.43 36.11-51.73q3.95-0.7 7.83-0.7c21.2 0 40.06 15.22 43.9 36.81 4.3 24.22-11.9 47.43-36.11 51.73zm168.2-43.17c-6.82 9.77-17.03 16.3-28.77 18.38-11.73 2.09-23.57-0.52-33.34-7.34-9.77-6.82-16.3-17.04-18.39-28.77-2.08-11.73 0.53-23.58 7.35-33.35 6.82-9.77 17.04-16.29 28.77-18.38q3.96-0.7 7.9-0.7c9.05 0 17.87 2.75 25.44 8.04 9.77 6.83 16.3 17.04 18.39 28.78 2.08 11.73-0.53 23.57-7.35 33.34z"/>
				</g>
				<g>
					<path class="s9" d="m121.34 246.1c-1.8-9.97 3.75-19.32 12.39-20.88 8.64-1.56 17.11 5.26 18.91 15.23 1.8 9.97-3.75 19.32-12.39 20.88-8.65 1.56-17.11-5.26-18.91-15.23z"/>
					<path class="s9" d="m258.28 228.27c-1.8-9.97 3.75-19.32 12.39-20.88 8.65-1.56 17.11 5.26 18.91 15.23 1.8 9.97-3.75 19.32-12.39 20.88-8.64 1.56-17.11-5.26-18.91-15.23z"/>
				</g>
			</g>
		</g>
	</g>
</svg>
